HIERARCHY
ROOT Hips
{
	OFFSET 0.00000 0.00000 0.00000
	CHANNELS 6 Xposition Yposition Zposition Zrotation Yrotation Xrotation 
	JOINT LHipJoint
	{
		OFFSET 0 0 0
		CHANNELS 3 Zrotation Yrotation Xrotation
		JOINT LeftUpLeg
		{
			OFFSET 1.77779 -1.88989 0.48267
			CHANNELS 3 Zrotation Yrotation Xrotation
			JOINT LeftLeg
			{
				OFFSET 2.53442 -6.96327 0.00000
				CHANNELS 3 Zrotation Yrotation Xrotation
				JOINT LeftFoot
				{
					OFFSET 2.71068 -7.44755 0.00000
					CHANNELS 3 Zrotation Yrotation Xrotation
					JOINT LeftToeBase
					{
						OFFSET 0.17992 -0.49431 2.22524
						CHANNELS 3 Zrotation Yrotation Xrotation
						End Site
						{
							OFFSET 0.00000 -0.00000 1.14687
						}
					}
				}
			}
		}
	}
	JOINT RHipJoint
	{
		OFFSET 0 0 0
		CHANNELS 3 Zrotation Yrotation Xrotation
		JOINT RightUpLeg
		{
			OFFSET -1.58469 -1.88989 0.48267
			CHANNELS 3 Zrotation Yrotation Xrotation
			JOINT RightLeg
			{
				OFFSET -2.60386 -7.15404 0.00000
				CHANNELS 3 Zrotation Yrotation Xrotation
				JOINT RightFoot
				{
					OFFSET -2.73334 -7.50979 0.00000
					CHANNELS 3 Zrotation Yrotation Xrotation
					JOINT RightToeBase
					{
						OFFSET -0.25618 -0.70384 2.21822
						CHANNELS 3 Zrotation Yrotation Xrotation
						End Site
						{
							OFFSET -0.00000 -0.00000 1.16381
						}
					}
				}
			}
		}
	}
	JOINT LowerBack
	{
		OFFSET 0 0 0
		CHANNELS 3 Zrotation Yrotation Xrotation
		JOINT Spine
		{
			OFFSET 0.03410 2.01612 -0.22230
			CHANNELS 3 Zrotation Yrotation Xrotation
			JOINT Spine1
			{
				OFFSET 0.03465 2.03012 0.00937
				CHANNELS 3 Zrotation Yrotation Xrotation
				JOINT Neck
				{
					OFFSET 0 0 0
					CHANNELS 3 Zrotation Yrotation Xrotation
					JOINT Neck1
					{
						OFFSET -0.00219 1.70459 0.20857
						CHANNELS 3 Zrotation Yrotation Xrotation
						JOINT Head
						{
							OFFSET 0.02518 1.72339 -0.22179
							CHANNELS 3 Zrotation Yrotation Xrotation
							End Site
							{
								OFFSET 0.00282 1.74122 -0.09823
							}
						}
					}
				}
				JOINT LeftShoulder
				{
					OFFSET 0 0 0
					CHANNELS 3 Zrotation Yrotation Xrotation
					JOINT LeftArm
					{
						OFFSET 3.36358 1.00547 -0.37661
						CHANNELS 3 Zrotation Yrotation Xrotation
						JOINT LeftForeArm
						{
							OFFSET 5.06507 -0.00000 0.00000
							CHANNELS 3 Zrotation Yrotation Xrotation
							JOINT LeftHand
							{
								OFFSET 3.60196 -0.00000 0.00000
								CHANNELS 3 Zrotation Yrotation Xrotation
								JOINT LeftFingerBase
								{
									OFFSET 0 0 0
									CHANNELS 3 Zrotation Yrotation Xrotation
									JOINT LeftHandIndex1
									{
										OFFSET 0.45035 -0.00000 0.00000
										CHANNELS 3 Zrotation Yrotation Xrotation
										End Site
										{
											OFFSET 0.36308 -0.00000 0.00000
										}
									}
								}
								JOINT LThumb
								{
									OFFSET 0 0 0
									CHANNELS 3 Zrotation Yrotation Xrotation
									End Site
									{
										OFFSET 0.36862 -0.00000 0.36862
									}
								}
							}
						}
					}
				}
				JOINT RightShoulder
				{
					OFFSET 0 0 0
					CHANNELS 3 Zrotation Yrotation Xrotation
					JOINT RightArm
					{
						OFFSET -3.50159 0.80383 -0.71526
						CHANNELS 3 Zrotation Yrotation Xrotation
						JOINT RightForeArm
						{
							OFFSET -5.36394 -0.00000 0.00000
							CHANNELS 3 Zrotation Yrotation Xrotation
							JOINT RightHand
							{
								OFFSET -3.58035 -0.00000 0.00000
								CHANNELS 3 Zrotation Yrotation Xrotation
								JOINT RightFingerBase
								{
									OFFSET 0 0 0
									CHANNELS 3 Zrotation Yrotation Xrotation
									JOINT RightHandIndex1
									{
										OFFSET -0.66375 -0.00000 0.00000
										CHANNELS 3 Zrotation Yrotation Xrotation
										End Site
										{
											OFFSET -0.53513 -0.00000 0.00000
										}
									}
								}
								JOINT RThumb
								{
									OFFSET 0 0 0
									CHANNELS 3 Zrotation Yrotation Xrotation
									End Site
									{
										OFFSET -0.54330 -0.00000 0.54330
									}
								}
							}
						}
					}
				}
			}
		}
	}
}
MOTION
Frames: 12
Frame Time: .0083333
0.4006 17.7623 -29.0326 0 0 0 0 0 0 -21 0 0 0 0 0 0 0 0 0 0 0 0 0 0 21 0 0 0 0 0 0 0 0 0 0 0 0 0 0 0 0 0 0 0 0 0 0 -16 0 0 21 0 0 11 0 0 0 -8 0 0 0 0 0 0 0 0 0 0 0 0 0 0 0 0 0 0 0 0 8 0 0 0 0 0 0 0 0 0 0 0 0 0 0 0 0 0
0.4006 17.7623 -29.0326 -8.9182 -7.1388 1.2320 0.0000 0.0000 0.0000 -3.8928 -14.2499 -24.1749 0.3252 3.6656 10.1377 -0.3322 10.9915 -8.5405 1.2155 -6.9936 -19.6963 0.0000 0.0000 0.0000 33.7597 3.0619 10.3729 -1.5559 -7.8723 22.3269 -1.2663 3.4182 -20.4188 -0.7323 5.4674 -15.2467 7.8997 2.7902 8.5313 2.4576 4.5839 0.3061 -2.3843 2.1374 -4.0522 -1.1740 -3.0634 -17.7024 -1.8087 -3.4974 19.9924 -0.8810 -1.9271 9.1999 0.0000 -0.0000 0.0000 -85.8503 11.4133 24.8918 16.2001 -25.7912 -3.7326 -0.0000 0.0000 -1.3213 25.6258 24.6084 11.2957 -7.1250 0.0000 -0.0000 -4.2620 56.8587 -1.2402 0.0000 -0.0000 0.0000 84.6159 4.2385 25.2228 -17.5422 27.5670 -4.3353 0.0000 -0.0000 -0.7479 -17.0947 23.6823 -7.0419 7.1250 -0.0000 -0.0000 7.4876 -5.5082 6.7939
0.4191 17.7354 -28.8412 -8.7697 -7.0770 1.0942 0.0000 0.0000 0.0000 -4.6363 -13.3873 -25.0694 0.4460 4.2847 11.8791 -0.2685 10.2063 -8.5939 1.1149 -6.7079 -18.8528 0.0000 0.0000 0.0000 33.5272 3.0019 10.9150 -1.6342 -8.0586 22.8921 -1.2497 3.6855 -20.2360 -0.8093 5.7412 -16.0352 7.8934 2.7328 8.1099 2.3944 4.4384 0.6103 -2.3954 2.0941 -3.5052 -1.3770 -2.8810 -17.5295 -1.4305 -3.2807 19.5225 -0.6806 -1.7978 9.0181 -0.0000 -0.0000 0.0000 -85.9914 11.2238 24.5287 16.1169 -25.6789 -3.6965 -0.0000 0.0000 -1.2780 25.3465 24.7838 11.2311 -7.1250 0.0000 -0.0000 -4.6315 56.9825 -1.3618 -0.0000 -0.0000 0.0000 84.5890 4.7406 25.2985 -17.4658 27.4677 -4.3000 0.0000 -0.0000 -0.6331 -16.9991 23.7856 -7.0290 7.1250 -0.0000 -0.0000 7.5541 -5.4170 6.8685
0.4337 17.7248 -28.6550 -8.7498 -7.0388 0.7832 0.0000 0.0000 0.0000 -5.3078 -12.4708 -25.3417 0.5654 4.8159 13.3843 -0.1775 9.0186 -8.7227 1.2595 -7.1144 -20.0547 0.0000 0.0000 0.0000 33.4750 2.8881 11.6238 -1.7214 -8.2600 23.5066 -1.2214 3.3625 -20.0490 -0.8750 5.9637 -16.6791 7.8297 2.7539 8.3694 2.4146 4.4830 0.6860 -2.3571 2.1161 -3.5733 -1.4574 -2.9190 -16.9835 -1.2460 -3.3663 18.9318 -0.5982 -1.8226 8.7217 -0.0000 0.0000 0.0000 -86.0870 11.3058 24.4118 15.9541 -25.4583 -3.6262 -0.0000 0.0000 -1.2103 25.1894 24.7826 11.1531 -7.1250 0.0000 -0.0000 -4.8021 56.9468 -1.4080 -0.0000 0.0000 0.0000 84.5083 4.6801 25.3112 -17.5224 27.5413 -4.3261 0.0000 -0.0000 -0.7989 -16.9381 24.0071 -7.0633 7.1250 -0.0000 -0.0000 7.6074 -5.2005 6.9494
0.4486 17.7039 -28.4634 -8.7255 -7.1289 0.4894 0.0000 0.0000 0.0000 -5.7877 -11.8629 -25.4716 0.6797 5.2712 14.6838 -0.1249 8.1455 -8.5346 0.9855 -6.3189 -17.7125 0.0000 0.0000 0.0000 33.4110 2.8319 12.3070 -1.8128 -8.4647 24.1345 -1.1673 3.1310 -19.6226 -0.8809 5.9834 -16.7361 8.0019 3.2711 9.0925 1.9183 5.1946 1.3175 -3.0570 2.4935 -3.1834 -0.2576 -3.4352 -20.4626 -1.3751 -4.3482 19.8334 -1.0486 -2.1985 9.6262 -0.0000 -0.0000 0.0000 -84.8263 9.3688 26.0910 15.4373 -24.7518 -3.4069 -0.0000 0.0000 -1.8114 24.3832 26.2893 11.3514 -7.1250 0.0000 -0.0000 -6.3046 58.3431 -2.0629 -0.0000 -0.0000 0.0000 85.4145 5.9933 23.2419 -17.5449 27.5706 -4.3366 0.0000 -0.0000 -0.4573 -17.0365 24.3285 -7.1949 7.1250 -0.0000 -0.0000 7.5700 -4.8595 6.9639
0.4695 17.6894 -28.2561 -8.6508 -7.2277 0.4105 0.0000 0.0000 0.0000 -6.1753 -11.6136 -25.7173 0.8136 5.7558 16.0775 -0.0751 7.2615 -8.3969 1.1372 -6.7725 -19.0430 0.0000 0.0000 0.0000 33.2563 2.8607 12.7857 -1.8955 -8.6449 24.6906 -1.1123 3.4942 -19.0772 -0.9191 6.1082 -17.0988 7.4757 2.8964 9.0775 2.5841 4.7796 -0.1621 -2.0925 2.2020 -4.8792 -1.7975 -3.0857 -14.2315 -1.1759 -3.5930 18.4400 -0.4909 -1.9474 8.0708 0.0000 0.0000 0.0000 -86.3948 13.2854 24.6089 15.4015 -24.7025 -3.3920 -0.0000 0.0000 -1.9376 23.9541 29.5216 12.3481 -7.1250 0.0000 -0.0000 -8.4446 61.5680 -3.4190 0.0000 0.0000 0.0000 84.2941 2.3623 25.0796 -17.8678 27.9876 -4.4870 0.0000 -0.0000 -0.7925 -17.3229 24.9701 -7.5009 7.1250 -0.0000 -0.0000 7.4433 -4.1644 6.9431
0.4923 17.6879 -28.0409 -8.3783 -7.3610 0.3084 0.0000 0.0000 0.0000 -6.8155 -11.3349 -25.7226 0.9380 6.1689 17.2753 -0.0424 6.1616 -7.5255 1.2481 -7.0832 -19.9621 0.0000 0.0000 0.0000 32.8300 2.8301 13.1945 -1.9849 -8.8345 25.2789 -1.0400 3.9385 -18.3610 -0.9897 6.3319 -17.7506 7.4106 3.1484 8.9017 2.2800 5.0236 0.5611 -2.3601 2.3712 -3.9739 -1.2226 -3.2340 -17.2822 -1.2355 -3.8609 19.2950 -0.7053 -2.0363 8.8942 0.0000 0.0000 0.0000 -85.9277 11.6617 25.0600 15.1739 -24.3879 -3.2974 -0.0000 0.0000 -1.7768 25.1426 29.3998 12.9745 -7.1250 0.0000 -0.0000 -6.9914 61.7457 -2.8565 0.0000 0.0000 0.0000 84.7292 3.8877 23.8487 -17.6737 27.7373 -4.3963 0.0000 -0.0000 -0.1982 -17.3212 25.7249 -7.7092 7.1250 -0.0000 -0.0000 7.5054 -3.3979 7.1096
0.5169 17.6961 -27.8233 -8.0839 -7.4490 0.1970 0.0000 0.0000 0.0000 -7.4784 -11.0476 -25.8968 1.0946 6.6484 18.6779 -0.0216 4.7197 -5.9036 1.3048 -7.2363 -20.4175 0.0000 0.0000 0.0000 32.3210 2.6405 13.5502 -2.0701 -9.0107 25.8287 -0.9402 4.0292 -17.4150 -1.1358 6.7684 -19.0309 6.8436 2.9344 8.8511 2.6136 4.7694 -0.5126 -1.7112 2.1974 -5.1745 -2.0459 -2.9485 -12.9954 -1.1381 -3.3897 18.4082 -0.3936 -1.8651 7.8446 -0.0000 -0.0000 0.0000 -86.8717 14.5365 23.8881 15.3941 -24.6922 -3.3889 -0.0000 0.0000 -0.9512 25.4534 26.1979 11.8670 -7.1250 0.0000 -0.0000 -5.0764 58.4941 -1.6780 -0.0000 -0.0000 0.0000 84.0698 1.3341 24.9797 -17.8299 27.9388 -4.4693 0.0000 -0.0000 -0.2247 -17.1061 26.2285 -7.7455 7.1250 -0.0000 -0.0000 7.6775 -2.9209 7.3435
0.5442 17.7154 -27.6083 -7.7828 -7.2896 0.0453 0.0000 0.0000 0.0000 -8.0995 -10.9767 -26.0356 1.2548 7.1016 20.0167 -0.0014 2.9591 -4.1447 1.3945 -7.4709 -21.1181 0.0000 0.0000 0.0000 31.8575 2.3818 13.8702 -2.1676 -9.2068 26.4443 -0.8439 4.0140 -16.4707 -1.2098 6.9777 -19.6492 6.9562 3.1381 8.7538 2.1707 4.9778 0.1006 -2.2273 2.3318 -4.4070 -1.2563 -3.2189 -15.6391 -1.2951 -3.8495 19.1336 -0.6843 -2.0422 8.5422 0.0000 0.0000 0.0000 -86.1148 13.0940 24.6188 15.2238 -24.4569 -3.3180 -0.0000 0.0000 -1.1316 25.0307 26.6799 11.8415 -7.1250 0.0000 -0.0000 -5.7580 58.8999 -1.9603 0.0000 0.0000 0.0000 84.7106 2.5415 23.6573 -17.7441 27.8282 -4.4291 0.0000 0.0000 0.0507 -16.9862 26.9275 -7.8760 7.1250 -0.0000 -0.0000 7.8094 -2.2323 7.5708
0.5709 17.7242 -27.3955 -7.6455 -7.1107 -0.1331 0.0000 0.0000 0.0000 -8.4445 -11.0865 -26.0299 1.4020 7.4901 21.1757 0.0078 1.5055 -2.8576 1.4724 -7.6678 -21.7096 0.0000 0.0000 0.0000 31.5998 2.1494 14.1495 -2.2922 -9.4499 27.2130 -0.7310 3.8998 -15.3041 -1.3031 7.2318 -20.4038 7.0295 3.1430 8.5655 2.0120 4.9475 0.3966 -2.4041 2.3363 -3.9724 -0.9605 -3.1961 -16.6581 -1.2810 -3.8799 19.5324 -0.7573 -2.0316 8.8556 -0.0000 -0.0000 0.0000 -85.9454 12.6774 24.6549 15.1076 -24.2957 -3.2701 -0.0000 0.0000 -1.3981 25.1734 28.7462 12.7369 -7.1250 0.0000 -0.0000 -6.5998 61.0797 -2.5916 -0.0000 -0.0000 0.0000 85.0134 3.0279 22.9082 -17.5509 27.5783 -4.3393 0.0000 0.0000 0.3364 -17.0978 26.4160 -7.7923 7.1250 -0.0000 -0.0000 7.6984 -2.7322 7.3906
0.5930 17.7311 -27.1723 -7.0900 -7.0352 -0.3203 0.0000 0.0000 0.0000 -9.1486 -11.4187 -25.8100 1.5225 7.7912 22.0816 0.0115 0.4273 -2.2278 1.3810 -7.4361 -21.0140 0.0000 0.0000 0.0000 30.9367 2.1639 14.3620 -2.4610 -9.7667 28.2244 -0.6198 3.7486 -14.0705 -1.3985 7.4811 -21.1487 6.4384 3.1346 8.4025 1.9431 4.8712 0.2711 -2.1368 2.3044 -4.0612 -1.0347 -3.1363 -16.2909 -1.2499 -3.7909 19.7654 -0.7201 -1.9924 8.8715 -0.0000 -0.0000 0.0000 -86.1434 13.1511 24.1329 15.0546 -24.2221 -3.2483 -0.0000 0.0000 -0.4214 24.8573 30.3526 13.1759 -7.1250 0.0000 -0.0000 -7.8863 62.6481 -3.3924 -0.0000 -0.0000 0.0000 85.0418 2.5678 22.5446 -17.4301 27.4213 -4.2835 0.0000 0.0000 0.6040 -17.4387 23.6027 -7.1686 7.1250 -0.0000 -0.0000 7.2688 -5.5393 6.5876
0.6142 17.7452 -26.9509 -6.2562 -6.6870 -0.4870 0.0000 0.0000 0.0000 -10.2811 -11.7112 -25.5697 1.6304 8.0495 22.8646 0.0067 -1.0197 -1.5213 0.7710 -5.6066 -15.6471 0.0000 0.0000 0.0000 29.9399 1.9874 14.2333 -2.6791 -10.1566 29.4852 -0.5087 3.6572 -12.7207 -1.4363 7.5773 -21.4374 5.5677 3.0170 8.2039 1.8268 4.6233 0.0855 -1.7463 2.1909 -4.2211 -1.2921 -3.1545 -15.5317 -1.1995 -3.7750 19.6929 -0.6434 -2.0000 8.7159 -0.0000 -0.0000 0.0000 -86.4201 13.4931 23.8490 14.6298 -23.6279 -3.0760 -0.0000 0.0000 -1.0806 25.3758 28.4002 12.7130 -7.1250 0.0000 -0.0000 -6.1860 60.7723 -2.3832 -0.0000 -0.0000 0.0000 85.0130 1.9019 22.4169 -17.4274 27.4178 -4.2823 0.0000 0.0000 0.7937 -17.5459 21.6280 -6.6471 7.1250 -0.0000 -0.0000 7.0689 -7.5418 6.1280
